<svg width="124" height="39" viewBox="0 0 124 39" fill="none" xmlns="http://www.w3.org/2000/svg">
<path d="M16.2542 14.035H9.41422V22H4.94422V2.2H9.41422V10.12H16.2542V2.2H20.7092V22H16.2542V14.035ZM33.6744 22V20.005C33.5844 20.205 33.3544 20.495 32.9844 20.875C32.6244 21.255 32.1444 21.6 31.5444 21.91C30.9444 22.21 30.2444 22.36 29.4444 22.36C28.2444 22.36 27.1944 22.07 26.2944 21.49C25.3944 20.9 24.6944 20.115 24.1944 19.135C23.6944 18.145 23.4444 17.05 23.4444 15.85C23.4444 14.65 23.6944 13.56 24.1944 12.58C24.6944 11.59 25.3944 10.8 26.2944 10.21C27.1944 9.62 28.2444 9.325 29.4444 9.325C30.2144 9.325 30.8894 9.45 31.4694 9.7C32.0494 9.94 32.5194 10.23 32.8794 10.57C33.2394 10.9 33.4894 11.205 33.6294 11.485V9.685H38.1594V22H33.6744ZM27.9144 15.85C27.9144 16.41 28.0444 16.915 28.3044 17.365C28.5644 17.805 28.9094 18.15 29.3394 18.4C29.7794 18.65 30.2644 18.775 30.7944 18.775C31.3444 18.775 31.8294 18.65 32.2494 18.4C32.6694 18.15 32.9994 17.805 33.2394 17.365C33.4894 16.915 33.6144 16.41 33.6144 15.85C33.6144 15.29 33.4894 14.79 33.2394 14.35C32.9994 13.9 32.6694 13.55 32.2494 13.3C31.8294 13.04 31.3444 12.91 30.7944 12.91C30.2644 12.91 29.7794 13.04 29.3394 13.3C28.9094 13.55 28.5644 13.9 28.3044 14.35C28.0444 14.79 27.9144 15.29 27.9144 15.85ZM47.728 18.775C48.298 18.775 48.768 18.68 49.138 18.49C49.508 18.29 49.758 18.13 49.888 18.01L51.973 21.1C51.813 21.23 51.538 21.4 51.148 21.61C50.758 21.81 50.268 21.985 49.678 22.135C49.098 22.285 48.433 22.36 47.683 22.36C46.273 22.36 45.033 22.095 43.963 21.565C42.893 21.025 42.058 20.265 41.458 19.285C40.868 18.305 40.573 17.155 40.573 15.835C40.573 14.505 40.868 13.355 41.458 12.385C42.058 11.415 42.893 10.665 43.963 10.135C45.033 9.595 46.273 9.325 47.683 9.325C48.423 9.325 49.083 9.405 49.663 9.565C50.253 9.715 50.748 9.89 51.148 10.09C51.548 10.28 51.828 10.445 51.988 10.585L49.858 13.705C49.788 13.635 49.658 13.535 49.468 13.405C49.288 13.275 49.053 13.16 48.763 13.06C48.473 12.96 48.128 12.91 47.728 12.91C47.238 12.91 46.778 13.035 46.348 13.285C45.928 13.535 45.588 13.88 45.328 14.32C45.068 14.76 44.938 15.265 44.938 15.835C44.938 16.405 45.068 16.915 45.328 17.365C45.588 17.805 45.928 18.15 46.348 18.4C46.778 18.65 47.238 18.775 47.728 18.775ZM62.2264 9.685H67.3864L61.5814 15.565L67.9864 22H62.7064L57.9514 17.05V22H53.3914V1.36H57.9514V13.975L62.2264 9.685ZM80.5023 14.035H73.6623V22H69.1923V2.2H73.6623V10.12H80.5023V2.2H84.9573V22H80.5023V14.035ZM92.6874 15.385C92.6874 16.365 92.8724 17.15 93.2424 17.74C93.6124 18.32 94.2324 18.61 95.1024 18.61C95.9924 18.61 96.6174 18.32 96.9774 17.74C97.3474 17.15 97.5324 16.365 97.5324 15.385V9.685H102.032V15.865C102.032 17.185 101.757 18.335 101.207 19.315C100.667 20.285 99.8824 21.035 98.8524 21.565C97.8224 22.095 96.5724 22.36 95.1024 22.36C93.6424 22.36 92.3974 22.095 91.3674 21.565C90.3374 21.035 89.5524 20.285 89.0124 19.315C88.4724 18.335 88.2024 17.185 88.2024 15.865V9.685H92.6874V15.385ZM104.728 22V1.36H109.288V11.485C109.378 11.205 109.608 10.9 109.978 10.57C110.358 10.23 110.853 9.94 111.463 9.7C112.083 9.45 112.783 9.325 113.563 9.325C114.763 9.325 115.803 9.62 116.683 10.21C117.563 10.8 118.243 11.59 118.723 12.58C119.203 13.56 119.443 14.65 119.443 15.85C119.443 17.05 119.203 18.145 118.723 19.135C118.243 20.115 117.563 20.9 116.683 21.49C115.803 22.07 114.763 22.36 113.563 22.36C112.903 22.36 112.278 22.24 111.688 22C111.108 21.77 110.603 21.475 110.173 21.115C109.753 20.745 109.443 20.375 109.243 20.005V22H104.728ZM114.973 15.85C114.973 15.29 114.848 14.79 114.598 14.35C114.358 13.9 114.023 13.55 113.593 13.3C113.173 13.04 112.698 12.91 112.168 12.91C111.618 12.91 111.123 13.04 110.683 13.3C110.253 13.55 109.913 13.9 109.663 14.35C109.413 14.79 109.288 15.29 109.288 15.85C109.288 16.41 109.413 16.915 109.663 17.365C109.913 17.805 110.253 18.15 110.683 18.4C111.123 18.65 111.618 18.775 112.168 18.775C112.698 18.775 113.173 18.65 113.593 18.4C114.023 18.15 114.358 17.805 114.598 17.365C114.848 16.915 114.973 16.41 114.973 15.85Z" fill="white"/>
<path d="M12.7778 32.415C12.8644 32.415 12.9361 32.4433 12.9928 32.5C13.0528 32.5533 13.0828 32.6233 13.0828 32.71C13.0828 32.7933 13.0528 32.8633 12.9928 32.92C12.9361 32.9733 12.8644 33 12.7778 33H11.1528C11.0661 33 10.9928 32.9717 10.9328 32.915C10.8761 32.855 10.8478 32.7817 10.8478 32.695V29.805C10.8478 29.7183 10.8778 29.6467 10.9378 29.59C10.9978 29.53 11.0744 29.5 11.1678 29.5C11.2478 29.5 11.3178 29.53 11.3778 29.59C11.4411 29.6467 11.4728 29.7183 11.4728 29.805V32.5L11.3628 32.415H12.7778ZM20.4654 33.05C20.182 33.05 19.9354 32.9917 19.7254 32.875C19.5187 32.755 19.3587 32.5933 19.2454 32.39C19.1354 32.1867 19.0804 31.9567 19.0804 31.7C19.0804 31.4 19.1404 31.145 19.2604 30.935C19.3837 30.7217 19.5437 30.5583 19.7404 30.445C19.937 30.3317 20.1454 30.275 20.3654 30.275C20.5354 30.275 20.6954 30.31 20.8454 30.38C20.9987 30.45 21.1337 30.5467 21.2504 30.67C21.367 30.79 21.4587 30.93 21.5254 31.09C21.5954 31.25 21.6304 31.42 21.6304 31.6C21.627 31.68 21.5954 31.745 21.5354 31.795C21.4754 31.845 21.4054 31.87 21.3254 31.87H19.4154L19.2654 31.37H21.1004L20.9904 31.47V31.335C20.9837 31.2383 20.9487 31.1517 20.8854 31.075C20.8254 30.9983 20.7487 30.9383 20.6554 30.895C20.5654 30.8483 20.4687 30.825 20.3654 30.825C20.2654 30.825 20.172 30.8383 20.0854 30.865C19.9987 30.8917 19.9237 30.9367 19.8604 31C19.797 31.0633 19.747 31.1483 19.7104 31.255C19.6737 31.3617 19.6554 31.4967 19.6554 31.66C19.6554 31.84 19.692 31.9933 19.7654 32.12C19.842 32.2433 19.9387 32.3383 20.0554 32.405C20.1754 32.4683 20.302 32.5 20.4354 32.5C20.5587 32.5 20.657 32.49 20.7304 32.47C20.8037 32.45 20.862 32.4267 20.9054 32.4C20.952 32.37 20.9937 32.345 21.0304 32.325C21.0904 32.295 21.147 32.28 21.2004 32.28C21.2737 32.28 21.3337 32.305 21.3804 32.355C21.4304 32.405 21.4554 32.4633 21.4554 32.53C21.4554 32.62 21.4087 32.7017 21.3154 32.775C21.2287 32.8483 21.107 32.9133 20.9504 32.97C20.7937 33.0233 20.632 33.05 20.4654 33.05ZM27.7846 30.375H28.9696C29.0496 30.375 29.1163 30.4017 29.1696 30.455C29.2229 30.5083 29.2496 30.575 29.2496 30.655C29.2496 30.7317 29.2229 30.7967 29.1696 30.85C29.1163 30.9 29.0496 30.925 28.9696 30.925H27.7846C27.7046 30.925 27.6379 30.8983 27.5846 30.845C27.5313 30.7917 27.5046 30.725 27.5046 30.645C27.5046 30.5683 27.5313 30.505 27.5846 30.455C27.6379 30.4017 27.7046 30.375 27.7846 30.375ZM28.3196 29.75C28.4063 29.75 28.4763 29.78 28.5296 29.84C28.5863 29.8967 28.6146 29.9683 28.6146 30.055V32.28C28.6146 32.3267 28.6229 32.365 28.6396 32.395C28.6596 32.425 28.6846 32.4467 28.7146 32.46C28.7479 32.4733 28.7829 32.48 28.8196 32.48C28.8596 32.48 28.8963 32.4733 28.9296 32.46C28.9629 32.4433 29.0013 32.435 29.0446 32.435C29.0913 32.435 29.1329 32.4567 29.1696 32.5C29.2096 32.5433 29.2296 32.6033 29.2296 32.68C29.2296 32.7733 29.1779 32.85 29.0746 32.91C28.9746 32.97 28.8663 33 28.7496 33C28.6796 33 28.6013 32.995 28.5146 32.985C28.4313 32.9717 28.3513 32.9433 28.2746 32.9C28.2013 32.8533 28.1396 32.7833 28.0896 32.69C28.0396 32.5967 28.0146 32.4683 28.0146 32.305V30.055C28.0146 29.9683 28.0429 29.8967 28.0996 29.84C28.1596 29.78 28.2329 29.75 28.3196 29.75ZM36.1605 30.005C36.1605 30.115 36.1288 30.2267 36.0655 30.34C36.0055 30.45 35.9255 30.5433 35.8255 30.62C35.7288 30.6933 35.6255 30.73 35.5155 30.73C35.4788 30.73 35.4388 30.715 35.3955 30.685C35.3555 30.655 35.3355 30.6033 35.3355 30.53C35.3355 30.4533 35.3588 30.4083 35.4055 30.395C35.4555 30.3783 35.4972 30.3617 35.5305 30.345C35.5738 30.3217 35.6072 30.295 35.6305 30.265C35.6572 30.2317 35.6705 30.1917 35.6705 30.145C35.6705 30.1083 35.6522 30.0767 35.6155 30.05C35.5822 30.02 35.5372 30.005 35.4805 30.005C35.4605 30.005 35.4372 30.0083 35.4105 30.015C35.3838 30.0183 35.3605 30.0267 35.3405 30.04C35.3072 30.0233 35.2772 30.0033 35.2505 29.98C35.2272 29.9533 35.2155 29.9117 35.2155 29.855C35.2155 29.7517 35.2622 29.6633 35.3555 29.59C35.4522 29.5133 35.5638 29.475 35.6905 29.475C35.8338 29.475 35.9472 29.5233 36.0305 29.62C36.1172 29.7167 36.1605 29.845 36.1605 30.005ZM42.2224 32.585C42.1891 32.5383 42.1741 32.4783 42.1774 32.405C42.1808 32.3317 42.2241 32.2683 42.3074 32.215C42.3608 32.1817 42.4174 32.1683 42.4774 32.175C42.5374 32.1783 42.5958 32.2083 42.6524 32.265C42.7491 32.3617 42.8508 32.4367 42.9574 32.49C43.0641 32.5433 43.1974 32.57 43.3574 32.57C43.4074 32.5667 43.4624 32.56 43.5224 32.55C43.5824 32.5367 43.6341 32.51 43.6774 32.47C43.7241 32.4267 43.7474 32.3617 43.7474 32.275C43.7474 32.2017 43.7224 32.1433 43.6724 32.1C43.6224 32.0567 43.5558 32.02 43.4724 31.99C43.3924 31.96 43.3024 31.9317 43.2024 31.905C43.0991 31.875 42.9924 31.8417 42.8824 31.805C42.7758 31.7683 42.6774 31.7217 42.5874 31.665C42.4974 31.605 42.4241 31.5267 42.3674 31.43C42.3108 31.3333 42.2824 31.2117 42.2824 31.065C42.2824 30.8983 42.3291 30.7567 42.4224 30.64C42.5158 30.5233 42.6358 30.4333 42.7824 30.37C42.9324 30.3067 43.0891 30.275 43.2524 30.275C43.3558 30.275 43.4641 30.2883 43.5774 30.315C43.6908 30.3383 43.7991 30.3783 43.9024 30.435C44.0058 30.4883 44.0924 30.56 44.1624 30.65C44.1991 30.7 44.2208 30.76 44.2274 30.83C44.2341 30.9 44.2024 30.9633 44.1324 31.02C44.0824 31.06 44.0241 31.0783 43.9574 31.075C43.8908 31.0683 43.8358 31.045 43.7924 31.005C43.7358 30.9317 43.6591 30.8733 43.5624 30.83C43.4691 30.7867 43.3608 30.765 43.2374 30.765C43.1874 30.765 43.1324 30.7717 43.0724 30.785C43.0158 30.795 42.9658 30.82 42.9224 30.86C42.8791 30.8967 42.8574 30.9567 42.8574 31.04C42.8574 31.1167 42.8824 31.1783 42.9324 31.225C42.9824 31.2683 43.0491 31.305 43.1324 31.335C43.2191 31.3617 43.3108 31.3883 43.4074 31.415C43.5074 31.4417 43.6091 31.4733 43.7124 31.51C43.8158 31.5467 43.9108 31.595 43.9974 31.655C44.0841 31.715 44.1541 31.7933 44.2074 31.89C44.2608 31.9833 44.2874 32.1033 44.2874 32.25C44.2874 32.42 44.2374 32.565 44.1374 32.685C44.0374 32.805 43.9124 32.8967 43.7624 32.96C43.6124 33.02 43.4591 33.05 43.3024 33.05C43.1058 33.05 42.9091 33.0167 42.7124 32.95C42.5158 32.88 42.3524 32.7583 42.2224 32.585ZM57.7459 29.5H59.4209C59.5076 29.5 59.5793 29.5283 59.6359 29.585C59.6959 29.6383 59.7259 29.7083 59.7259 29.795C59.7259 29.8783 59.6959 29.9467 59.6359 30C59.5793 30.05 59.5076 30.075 59.4209 30.075H58.0209L58.0659 29.99V30.965L58.0259 30.925H59.1959C59.2826 30.925 59.3543 30.9533 59.4109 31.01C59.4709 31.0633 59.5009 31.1333 59.5009 31.22C59.5009 31.3033 59.4709 31.3717 59.4109 31.425C59.3543 31.475 59.2826 31.5 59.1959 31.5H58.0409L58.0659 31.46V32.47L58.0259 32.425H59.4209C59.5076 32.425 59.5793 32.455 59.6359 32.515C59.6959 32.5717 59.7259 32.6383 59.7259 32.715C59.7259 32.7983 59.6959 32.8667 59.6359 32.92C59.5793 32.9733 59.5076 33 59.4209 33H57.7459C57.6593 33 57.5859 32.9717 57.5259 32.915C57.4693 32.855 57.4409 32.7817 57.4409 32.695V29.805C57.4409 29.7183 57.4693 29.6467 57.5259 29.59C57.5859 29.53 57.6593 29.5 57.7459 29.5ZM65.9073 30.325C66.0039 30.325 66.0856 30.3667 66.1523 30.45L67.8223 32.525C67.8656 32.5783 67.8873 32.6383 67.8873 32.705C67.8873 32.7883 67.8556 32.86 67.7923 32.92C67.7289 32.98 67.6589 33.01 67.5823 33.01C67.4856 33.01 67.4039 32.9667 67.3373 32.88L65.6673 30.805C65.6239 30.7517 65.6023 30.6917 65.6023 30.625C65.6023 30.5383 65.6323 30.4667 65.6923 30.41C65.7556 30.3533 65.8273 30.325 65.9073 30.325ZM65.9123 33.005C65.8456 33.005 65.7789 32.98 65.7123 32.93C65.6489 32.8767 65.6173 32.8133 65.6173 32.74C65.6173 32.6733 65.6423 32.61 65.6923 32.55L66.4573 31.615L66.7573 32.115L66.1523 32.88C66.0889 32.9633 66.0089 33.005 65.9123 33.005ZM67.5773 30.325C67.6573 30.325 67.7239 30.3533 67.7773 30.41C67.8339 30.4633 67.8623 30.525 67.8623 30.595C67.8623 30.6283 67.8573 30.6617 67.8473 30.695C67.8373 30.7283 67.8189 30.76 67.7923 30.79L67.0373 31.71L66.7223 31.275L67.3373 30.46C67.4039 30.37 67.4839 30.325 67.5773 30.325ZM75.2738 30.275C75.5071 30.275 75.7154 30.335 75.8988 30.455C76.0854 30.5717 76.2321 30.7333 76.3388 30.94C76.4488 31.1467 76.5038 31.3867 76.5038 31.66C76.5038 31.9333 76.4488 32.175 76.3388 32.385C76.2321 32.5917 76.0871 32.755 75.9038 32.875C75.7238 32.9917 75.5204 33.05 75.2938 33.05C75.1604 33.05 75.0354 33.0283 74.9188 32.985C74.8021 32.9417 74.6988 32.8867 74.6088 32.82C74.5221 32.7533 74.4538 32.6867 74.4038 32.62C74.3571 32.55 74.3338 32.4917 74.3338 32.445L74.4888 32.38V33.695C74.4888 33.7817 74.4604 33.8533 74.4038 33.91C74.3471 33.97 74.2754 34 74.1888 34C74.1021 34 74.0304 33.9717 73.9738 33.915C73.9171 33.8583 73.8888 33.785 73.8888 33.695V30.63C73.8888 30.5433 73.9171 30.4717 73.9738 30.415C74.0304 30.355 74.1021 30.325 74.1888 30.325C74.2754 30.325 74.3471 30.355 74.4038 30.415C74.4604 30.4717 74.4888 30.5433 74.4888 30.63V30.875L74.4038 30.83C74.4038 30.7867 74.4271 30.735 74.4738 30.675C74.5204 30.6117 74.5838 30.55 74.6638 30.49C74.7438 30.4267 74.8354 30.375 74.9388 30.335C75.0454 30.295 75.1571 30.275 75.2738 30.275ZM75.1988 30.825C75.0521 30.825 74.9238 30.8617 74.8138 30.935C74.7038 31.0083 74.6171 31.1083 74.5538 31.235C74.4938 31.3583 74.4638 31.5 74.4638 31.66C74.4638 31.8167 74.4938 31.96 74.5538 32.09C74.6171 32.2167 74.7038 32.3167 74.8138 32.39C74.9238 32.4633 75.0521 32.5 75.1988 32.5C75.3454 32.5 75.4721 32.4633 75.5788 32.39C75.6888 32.3167 75.7738 32.2167 75.8338 32.09C75.8971 31.96 75.9288 31.8167 75.9288 31.66C75.9288 31.5 75.8971 31.3583 75.8338 31.235C75.7738 31.1083 75.6888 31.0083 75.5788 30.935C75.4721 30.8617 75.3454 30.825 75.1988 30.825ZM83.2784 32.695C83.2784 32.7817 83.2484 32.855 83.1884 32.915C83.1318 32.9717 83.0601 33 82.9734 33C82.8901 33 82.8201 32.9717 82.7634 32.915C82.7068 32.855 82.6784 32.7817 82.6784 32.695V29.605C82.6784 29.5183 82.7068 29.4467 82.7634 29.39C82.8234 29.33 82.8968 29.3 82.9834 29.3C83.0701 29.3 83.1401 29.33 83.1934 29.39C83.2501 29.4467 83.2784 29.5183 83.2784 29.605V32.695ZM92.1222 31.665C92.1222 31.9383 92.0606 32.18 91.9372 32.39C91.8172 32.5967 91.6539 32.7583 91.4472 32.875C91.2439 32.9917 91.0156 33.05 90.7622 33.05C90.5089 33.05 90.2789 32.9917 90.0722 32.875C89.8689 32.7583 89.7056 32.5967 89.5822 32.39C89.4622 32.18 89.4022 31.9383 89.4022 31.665C89.4022 31.3917 89.4622 31.1517 89.5822 30.945C89.7056 30.735 89.8689 30.5717 90.0722 30.455C90.2789 30.335 90.5089 30.275 90.7622 30.275C91.0156 30.275 91.2439 30.335 91.4472 30.455C91.6539 30.5717 91.8172 30.735 91.9372 30.945C92.0606 31.1517 92.1222 31.3917 92.1222 31.665ZM91.5222 31.665C91.5222 31.495 91.4872 31.3483 91.4172 31.225C91.3506 31.0983 91.2589 31 91.1422 30.93C91.0289 30.86 90.9022 30.825 90.7622 30.825C90.6222 30.825 90.4939 30.86 90.3772 30.93C90.2639 31 90.1722 31.0983 90.1022 31.225C90.0356 31.3483 90.0022 31.495 90.0022 31.665C90.0022 31.8317 90.0356 31.9783 90.1022 32.105C90.1722 32.2283 90.2639 32.325 90.3772 32.395C90.4939 32.465 90.6222 32.5 90.7622 32.5C90.9022 32.5 91.0289 32.465 91.1422 32.395C91.2589 32.325 91.3506 32.2283 91.4172 32.105C91.4872 31.9783 91.5222 31.8317 91.5222 31.665ZM98.5474 33C98.4607 33 98.389 32.9717 98.3324 32.915C98.2757 32.855 98.2474 32.7817 98.2474 32.695V30.63C98.2474 30.5433 98.2757 30.4717 98.3324 30.415C98.389 30.355 98.4607 30.325 98.5474 30.325C98.634 30.325 98.7057 30.355 98.7624 30.415C98.819 30.4717 98.8474 30.5433 98.8474 30.63V31.1L98.8124 30.765C98.849 30.685 98.8957 30.615 98.9524 30.555C99.0124 30.4917 99.079 30.44 99.1524 30.4C99.2257 30.3567 99.304 30.325 99.3874 30.305C99.4707 30.285 99.554 30.275 99.6374 30.275C99.7374 30.275 99.8207 30.3033 99.8874 30.36C99.9574 30.4167 99.9924 30.4833 99.9924 30.56C99.9924 30.67 99.964 30.75 99.9074 30.8C99.8507 30.8467 99.789 30.87 99.7224 30.87C99.659 30.87 99.6007 30.8583 99.5474 30.835C99.4974 30.8117 99.439 30.8 99.3724 30.8C99.3124 30.8 99.2507 30.815 99.1874 30.845C99.1274 30.8717 99.0707 30.915 99.0174 30.975C98.9674 31.035 98.9257 31.11 98.8924 31.2C98.8624 31.2867 98.8474 31.39 98.8474 31.51V32.695C98.8474 32.7817 98.819 32.855 98.7624 32.915C98.7057 32.9717 98.634 33 98.5474 33ZM107.163 33.05C106.88 33.05 106.633 32.9917 106.423 32.875C106.216 32.755 106.056 32.5933 105.943 32.39C105.833 32.1867 105.778 31.9567 105.778 31.7C105.778 31.4 105.838 31.145 105.958 30.935C106.081 30.7217 106.241 30.5583 106.438 30.445C106.635 30.3317 106.843 30.275 107.063 30.275C107.233 30.275 107.393 30.31 107.543 30.38C107.696 30.45 107.831 30.5467 107.948 30.67C108.065 30.79 108.156 30.93 108.223 31.09C108.293 31.25 108.328 31.42 108.328 31.6C108.325 31.68 108.293 31.745 108.233 31.795C108.173 31.845 108.103 31.87 108.023 31.87H106.113L105.963 31.37H107.798L107.688 31.47V31.335C107.681 31.2383 107.646 31.1517 107.583 31.075C107.523 30.9983 107.446 30.9383 107.353 30.895C107.263 30.8483 107.166 30.825 107.063 30.825C106.963 30.825 106.87 30.8383 106.783 30.865C106.696 30.8917 106.621 30.9367 106.558 31C106.495 31.0633 106.445 31.1483 106.408 31.255C106.371 31.3617 106.353 31.4967 106.353 31.66C106.353 31.84 106.39 31.9933 106.463 32.12C106.54 32.2433 106.636 32.3383 106.753 32.405C106.873 32.4683 107 32.5 107.133 32.5C107.256 32.5 107.355 32.49 107.428 32.47C107.501 32.45 107.56 32.4267 107.603 32.4C107.65 32.37 107.691 32.345 107.728 32.325C107.788 32.295 107.845 32.28 107.898 32.28C107.971 32.28 108.031 32.305 108.078 32.355C108.128 32.405 108.153 32.4633 108.153 32.53C108.153 32.62 108.106 32.7017 108.013 32.775C107.926 32.8483 107.805 32.9133 107.648 32.97C107.491 33.0233 107.33 33.05 107.163 33.05Z" fill="white"/>
</svg>
