<svg width="120" height="40" viewBox="0 0 120 40" fill="none" xmlns="http://www.w3.org/2000/svg">
<path d="M7.359 25.964H12.511V29H3.426V12.854H7.359V25.964ZM13.6049 22.56C13.6049 21.2413 13.8503 20.0837 14.3409 19.087C14.8469 18.0903 15.5293 17.3237 16.3879 16.787C17.2466 16.2503 18.2049 15.982 19.2629 15.982C20.1676 15.982 20.9573 16.166 21.6319 16.534C22.3219 16.902 22.8509 17.385 23.2189 17.983V16.166H27.1519V29H23.2189V27.183C22.8356 27.781 22.2989 28.264 21.6089 28.632C20.9343 29 20.1446 29.184 19.2399 29.184C18.1973 29.184 17.2466 28.9157 16.3879 28.379C15.5293 27.827 14.8469 27.0527 14.3409 26.056C13.8503 25.044 13.6049 23.8787 13.6049 22.56ZM23.2189 22.583C23.2189 21.6017 22.9429 20.8273 22.3909 20.26C21.8543 19.6927 21.1949 19.409 20.4129 19.409C19.6309 19.409 18.9639 19.6927 18.4119 20.26C17.8753 20.812 17.6069 21.5787 17.6069 22.56C17.6069 23.5413 17.8753 24.3233 18.4119 24.906C18.9639 25.4733 19.6309 25.757 20.4129 25.757C21.1949 25.757 21.8543 25.4733 22.3909 24.906C22.9429 24.3387 23.2189 23.5643 23.2189 22.583ZM37.8403 29L33.9303 23.618V29H29.9973V11.98H33.9303V21.387L37.8173 16.166H42.6703L37.3343 22.606L42.7163 29H37.8403ZM49.4361 29.184C48.3167 29.184 47.3201 28.9923 46.4461 28.609C45.5721 28.2257 44.8821 27.7043 44.3761 27.045C43.8701 26.3703 43.5864 25.619 43.5251 24.791H47.4121C47.4581 25.2357 47.6651 25.596 48.0331 25.872C48.4011 26.148 48.8534 26.286 49.3901 26.286C49.8807 26.286 50.2564 26.194 50.5171 26.01C50.7931 25.8107 50.9311 25.5577 50.9311 25.251C50.9311 24.883 50.7394 24.6147 50.3561 24.446C49.9727 24.262 49.3517 24.0627 48.4931 23.848C47.5731 23.6333 46.8064 23.411 46.1931 23.181C45.5797 22.9357 45.0507 22.56 44.6061 22.054C44.1614 21.5327 43.9391 20.835 43.9391 19.961C43.9391 19.225 44.1384 18.558 44.5371 17.96C44.9511 17.3467 45.5491 16.8637 46.3311 16.511C47.1284 16.1583 48.0714 15.982 49.1601 15.982C50.7701 15.982 52.0351 16.3807 52.9551 17.178C53.8904 17.9753 54.4271 19.0333 54.5651 20.352H50.9311C50.8697 19.9073 50.6704 19.5547 50.3331 19.294C50.0111 19.0333 49.5817 18.903 49.0451 18.903C48.5851 18.903 48.2324 18.995 47.9871 19.179C47.7417 19.3477 47.6191 19.5853 47.6191 19.892C47.6191 20.26 47.8107 20.536 48.1941 20.72C48.5927 20.904 49.2061 21.088 50.0341 21.272C50.9847 21.5173 51.7591 21.7627 52.3571 22.008C52.9551 22.238 53.4764 22.6213 53.9211 23.158C54.3811 23.6793 54.6187 24.3847 54.6341 25.274C54.6341 26.0253 54.4194 26.7 53.9901 27.298C53.5761 27.8807 52.9704 28.3407 52.1731 28.678C51.3911 29.0153 50.4787 29.184 49.4361 29.184ZM64.9293 16.028C66.4013 16.028 67.5819 16.5187 68.4713 17.5C69.3606 18.466 69.8053 19.8 69.8053 21.502V29H65.8953V22.031C65.8953 21.1723 65.6729 20.5053 65.2283 20.03C64.7836 19.5547 64.1856 19.317 63.4343 19.317C62.6829 19.317 62.0849 19.5547 61.6403 20.03C61.1956 20.5053 60.9733 21.1723 60.9733 22.031V29H57.0403V11.98H60.9733V17.891C61.3719 17.3237 61.9163 16.8713 62.6063 16.534C63.2963 16.1967 64.0706 16.028 64.9293 16.028ZM71.7563 22.56C71.7563 21.2413 72.0016 20.0837 72.4923 19.087C72.9983 18.0903 73.6806 17.3237 74.5393 16.787C75.398 16.2503 76.3563 15.982 77.4143 15.982C78.319 15.982 79.1086 16.166 79.7833 16.534C80.4733 16.902 81.0023 17.385 81.3703 17.983V16.166H85.3033V29H81.3703V27.183C80.987 27.781 80.4503 28.264 79.7603 28.632C79.0856 29 78.296 29.184 77.3913 29.184C76.3486 29.184 75.398 28.9157 74.5393 28.379C73.6806 27.827 72.9983 27.0527 72.4923 26.056C72.0016 25.044 71.7563 23.8787 71.7563 22.56ZM81.3703 22.583C81.3703 21.6017 81.0943 20.8273 80.5423 20.26C80.0056 19.6927 79.3463 19.409 78.5643 19.409C77.7823 19.409 77.1153 19.6927 76.5633 20.26C76.0266 20.812 75.7583 21.5787 75.7583 22.56C75.7583 23.5413 76.0266 24.3233 76.5633 24.906C77.1153 25.4733 77.7823 25.757 78.5643 25.757C79.3463 25.757 80.0056 25.4733 80.5423 24.906C81.0943 24.3387 81.3703 23.5643 81.3703 22.583ZM101.259 16.166L93.2087 35.095H88.9767L91.9207 28.563L86.6997 16.166H91.0927L94.0597 24.193L97.0037 16.166H101.259ZM112.042 29L106.614 21.87V29H102.681V12.854H106.614V19.938L111.996 12.854H116.619L110.363 20.766L116.849 29H112.042Z" fill="white"/>
</svg>
